<svg width="33" height="33" viewBox="0 0 33 33" fill="none" xmlns="http://www.w3.org/2000/svg">
<path d="M16.2783 1C24.7157 1.00014 31.5557 7.84007 31.5557 16.2773C31.5556 24.7146 24.7157 31.5545 16.2783 31.5547C7.84085 31.5547 1.00002 24.7147 1 16.2773C1 7.83998 7.84084 1 16.2783 1Z" fill="#EE4AA6" stroke="#341D1A" stroke-width="2"/>
<path d="M4.67303 13.3116C4.67303 7.24706 9.58933 2.33075 15.6539 2.33075C21.7185 2.33075 26.6348 7.24705 26.6348 13.3116V14.1269C26.6348 20.1914 24.9347 25.1077 18.8701 25.1077C12.8056 25.1077 4.67303 20.1914 4.67303 14.1269V13.3116Z" fill="#FF73B8"/>
<rect x="7.50482" y="4.5444" width="9.34073" height="9.3213" rx="4.66065" fill="#FFE5F2"/>
</svg>
