<svg width="483" height="297" viewBox="0 0 483 297" fill="none" xmlns="http://www.w3.org/2000/svg">
<g filter="url(#filter0_ii_119_198)">
<path d="M23.3722 74.4319C23.3722 50.7855 41.1996 31.6163 63.1907 31.6163L410.18 31.6163C432.171 31.6163 449.999 50.7855 449.999 74.4319V125.658L451.214 147.448L449.999 169.238V215.309C449.999 238.955 432.171 258.125 410.18 258.125H63.1907C41.1996 258.125 23.3722 238.955 23.3722 215.309L23.3722 169.238L23.3459 147.448L23.3722 125.658V74.4319Z" fill="#A5DFF7"/>
</g>
<path d="M410.18 29.6163C433.41 29.6163 451.998 49.82 451.998 74.4318V125.598L453.211 147.336L453.217 147.447L453.211 147.559L451.998 169.296V215.309C451.998 239.92 433.41 260.124 410.18 260.124H63.1907C39.9608 260.124 21.3723 239.92 21.3723 215.309L21.3723 169.24L21.3459 147.45V147.445L21.3723 125.657L21.3723 74.4318C21.3724 49.82 39.9608 29.6163 63.1907 29.6163L410.18 29.6163Z" stroke="#341D1A" stroke-width="4"/>
<g filter="url(#filter1_ii_119_198)">
<g clip-path="url(#clip0_119_198)">
<rect x="51.7133" y="78.9147" width="79.9068" height="142.056" rx="11" fill="#F7F7F7"/>
<rect x="-1.97205" y="193.422" width="173.632" height="32.9286" fill="#E2E2E2"/>
<rect x="-2.41583" y="73.6898" width="173.632" height="32.9286" fill="#E2E2E2"/>
</g>
<rect x="50.2133" y="77.4147" width="82.9068" height="145.056" rx="12.5" stroke="#341D1A" stroke-width="3"/>
</g>
<g filter="url(#filter2_ii_119_198)">
<g clip-path="url(#clip1_119_198)">
<rect x="149.373" y="78.9147" width="78.427" height="142.056" rx="11" fill="#F7F7F7"/>
<rect x="96.6822" y="193.422" width="170.417" height="32.9286" fill="#E2E2E2"/>
<rect x="97.0141" y="73.6898" width="170.417" height="32.9286" fill="#E2E2E2"/>
</g>
<rect x="147.873" y="77.4147" width="81.427" height="145.056" rx="12.5" stroke="#341D1A" stroke-width="3"/>
</g>
<g filter="url(#filter3_ii_119_198)">
<g clip-path="url(#clip2_119_198)">
<rect x="245.558" y="78.9147" width="79.9068" height="142.056" rx="11" fill="#F7F7F7"/>
<rect x="191.872" y="193.422" width="173.632" height="32.9286" fill="#E2E2E2"/>
<rect x="191.872" y="73.6898" width="173.632" height="32.9286" fill="#E2E2E2"/>
</g>
<rect x="244.058" y="77.4147" width="82.9068" height="145.056" rx="12.5" stroke="#341D1A" stroke-width="3"/>
</g>
<g filter="url(#filter4_ii_119_198)">
<g clip-path="url(#clip3_119_198)">
<rect x="343.225" y="78.9147" width="79.9068" height="142.056" rx="11" fill="#F7F7F7"/>
<rect x="289.54" y="193.422" width="173.632" height="32.9286" fill="#E2E2E2"/>
<rect x="289.54" y="73.6898" width="173.632" height="32.9286" fill="#E2E2E2"/>
</g>
<rect x="341.725" y="77.4147" width="82.9068" height="145.056" rx="12.5" stroke="#341D1A" stroke-width="3"/>
</g>
<path fill-rule="evenodd" clip-rule="evenodd" d="M226.054 43.7214C224.884 43.7575 224.03 44.8524 224.404 45.9622C224.449 46.0961 224.495 46.2293 224.543 46.3619C225.294 48.4476 226.359 50.331 227.676 51.9044C228.994 53.4779 230.538 54.7106 232.222 55.5323C233.905 56.3539 235.695 56.7483 237.488 56.6931C239.281 56.6378 241.042 56.1339 242.672 55.2101C244.302 54.2864 245.768 52.9608 246.986 51.3092C248.204 49.6576 249.151 47.7122 249.772 45.5842C249.811 45.4489 249.849 45.3131 249.886 45.1767C250.191 44.046 249.271 43.0057 248.101 43.0418C247.229 43.0687 246.503 43.698 246.262 44.5356C246.256 44.554 246.251 44.5723 246.246 44.5906C245.732 46.349 244.964 47.9071 244.017 49.1905C243.071 50.4732 241.981 51.4373 240.843 52.0823C239.711 52.7239 238.536 53.0489 237.377 53.0847C236.217 53.1204 235.024 52.8684 233.855 52.2977C232.679 51.724 231.532 50.8289 230.508 49.6069C229.485 48.3842 228.622 46.8765 228.001 45.153C227.994 45.1351 227.988 45.1171 227.982 45.0991C227.689 44.2779 226.926 43.6945 226.054 43.7214Z" fill="#341D1A"/>
<path d="M109.424 33.4546L115.542 46.3716H124.154L117.808 33.4546H109.424Z" fill="#341D1A"/>
<path d="M113.066 9.18896C121.733 9.18904 128.718 16.0399 128.718 24.4399C128.718 32.84 121.733 39.6908 113.066 39.6909C104.399 39.6909 97.4149 32.84 97.4149 24.4399C97.4149 16.0399 104.399 9.18896 113.066 9.18896Z" fill="#A5DFF7" stroke="#341D1A" stroke-width="2"/>
<path d="M97.7097 6.90432L89.0638 0.5" stroke="#341D1A" stroke-linecap="round"/>
<path d="M92.0903 19.4675L81.4434 17.9155" stroke="#341D1A" stroke-linecap="round"/>
<path d="M93.9761 33.0632L83.6236 35.9943" stroke="#341D1A" stroke-linecap="round"/>
<ellipse cx="114.625" cy="28.1421" rx="5.20972" ry="5.2105" fill="#341D1A"/>
<path d="M360.661 34.4581L354.542 47.3742H345.931L352.276 34.4581H360.661Z" fill="#341D1A"/>
<path d="M357.017 10.1913C348.35 10.1913 341.365 17.0419 341.365 25.4413C341.365 33.8406 348.35 40.6913 357.017 40.6913C365.684 40.6911 372.669 33.8405 372.669 25.4413C372.669 17.042 365.684 10.1915 357.017 10.1913Z" fill="#A5DFF7" stroke="#341D1A" stroke-width="2"/>
<path d="M372.39 7.90853L381.036 1.50464" stroke="#341D1A" stroke-linecap="round"/>
<path d="M378.001 20.4711L388.648 18.9193" stroke="#341D1A" stroke-linecap="round"/>
<path d="M376.108 34.0642L386.461 36.995" stroke="#341D1A" stroke-linecap="round"/>
<ellipse cx="354.019" cy="28.0684" rx="5.20937" ry="5.21015" fill="#341D1A"/>
<ellipse cx="123.992" cy="54.298" rx="22.2349" ry="2.95951" fill="#F7405E"/>
<ellipse cx="345.115" cy="54.298" rx="22.2349" ry="2.95951" fill="#F7405E"/>
<ellipse cx="237.283" cy="285.772" rx="185.328" ry="10.7282" fill="#B18800" fill-opacity="0.3"/>
<path d="M137.328 288.663V263.507H121.126V276.298C116.791 273.882 107.013 270.499 102.579 276.298C98.1444 282.097 103.147 286.957 106.203 288.663H137.328Z" fill="#341D1A"/>
<path d="M319.428 288.663V263.507H335.631V276.298C339.966 273.882 349.744 270.499 354.179 276.298C358.613 282.097 353.61 286.957 350.554 288.663H319.428Z" fill="#341D1A"/>
<path d="M19.6976 218.952C15.5858 225.34 9.24333 240.092 16.7676 247.998C26.1729 257.88 40.7814 246.747 48.5396 246.342C54.7462 246.019 58.8635 247.78 60.1463 248.701" stroke="#341D1A" stroke-width="2" stroke-linecap="round" stroke-linejoin="round"/>
<path d="M452.91 215.577C456.573 222.225 462 237.338 454.406 244.607C444.913 253.694 431.374 241.543 423.933 240.553C417.98 239.761 413.941 241.195 412.665 242.011" stroke="#341D1A" stroke-width="2" stroke-linecap="round" stroke-linejoin="round"/>
<defs>
<filter id="filter0_ii_119_198" x="19.3459" y="27.6163" width="435.875" height="234.508" filterUnits="userSpaceOnUse" color-interpolation-filters="sRGB">
<feFlood flood-opacity="0" result="BackgroundImageFix"/>
<feBlend mode="normal" in="SourceGraphic" in2="BackgroundImageFix" result="shape"/>
<feColorMatrix in="SourceAlpha" type="matrix" values="0 0 0 0 0 0 0 0 0 0 0 0 0 0 0 0 0 0 127 0" result="hardAlpha"/>
<feOffset dy="9"/>
<feComposite in2="hardAlpha" operator="arithmetic" k2="-1" k3="1"/>
<feColorMatrix type="matrix" values="0 0 0 0 0.117647 0 0 0 0 0.658824 0 0 0 0 0.866667 0 0 0 1 0"/>
<feBlend mode="normal" in2="shape" result="effect1_innerShadow_119_198"/>
<feColorMatrix in="SourceAlpha" type="matrix" values="0 0 0 0 0 0 0 0 0 0 0 0 0 0 0 0 0 0 127 0" result="hardAlpha"/>
<feOffset dy="-9"/>
<feComposite in2="hardAlpha" operator="arithmetic" k2="-1" k3="1"/>
<feColorMatrix type="matrix" values="0 0 0 0 0.117647 0 0 0 0 0.658824 0 0 0 0 0.866667 0 0 0 1 0"/>
<feBlend mode="normal" in2="effect1_innerShadow_119_198" result="effect2_innerShadow_119_198"/>
</filter>
<filter id="filter1_ii_119_198" x="48.7133" y="75.9147" width="85.9067" height="148.057" filterUnits="userSpaceOnUse" color-interpolation-filters="sRGB">
<feFlood flood-opacity="0" result="BackgroundImageFix"/>
<feBlend mode="normal" in="SourceGraphic" in2="BackgroundImageFix" result="shape"/>
<feColorMatrix in="SourceAlpha" type="matrix" values="0 0 0 0 0 0 0 0 0 0 0 0 0 0 0 0 0 0 127 0" result="hardAlpha"/>
<feOffset dy="-6"/>
<feComposite in2="hardAlpha" operator="arithmetic" k2="-1" k3="1"/>
<feColorMatrix type="matrix" values="0 0 0 0 0.225 0 0 0 0 0.21873 0 0 0 0 0.213188 0 0 0 1 0"/>
<feBlend mode="normal" in2="shape" result="effect1_innerShadow_119_198"/>
<feColorMatrix in="SourceAlpha" type="matrix" values="0 0 0 0 0 0 0 0 0 0 0 0 0 0 0 0 0 0 127 0" result="hardAlpha"/>
<feOffset dy="6"/>
<feComposite in2="hardAlpha" operator="arithmetic" k2="-1" k3="1"/>
<feColorMatrix type="matrix" values="0 0 0 0 0.870833 0 0 0 0 0.736792 0 0 0 0 0.618292 0 0 0 1 0"/>
<feBlend mode="normal" in2="effect1_innerShadow_119_198" result="effect2_innerShadow_119_198"/>
</filter>
<filter id="filter2_ii_119_198" x="146.373" y="75.9147" width="84.427" height="148.057" filterUnits="userSpaceOnUse" color-interpolation-filters="sRGB">
<feFlood flood-opacity="0" result="BackgroundImageFix"/>
<feBlend mode="normal" in="SourceGraphic" in2="BackgroundImageFix" result="shape"/>
<feColorMatrix in="SourceAlpha" type="matrix" values="0 0 0 0 0 0 0 0 0 0 0 0 0 0 0 0 0 0 127 0" result="hardAlpha"/>
<feOffset dy="-6"/>
<feComposite in2="hardAlpha" operator="arithmetic" k2="-1" k3="1"/>
<feColorMatrix type="matrix" values="0 0 0 0 0.225 0 0 0 0 0.21873 0 0 0 0 0.213188 0 0 0 1 0"/>
<feBlend mode="normal" in2="shape" result="effect1_innerShadow_119_198"/>
<feColorMatrix in="SourceAlpha" type="matrix" values="0 0 0 0 0 0 0 0 0 0 0 0 0 0 0 0 0 0 127 0" result="hardAlpha"/>
<feOffset dy="6"/>
<feComposite in2="hardAlpha" operator="arithmetic" k2="-1" k3="1"/>
<feColorMatrix type="matrix" values="0 0 0 0 0.870833 0 0 0 0 0.736792 0 0 0 0 0.618292 0 0 0 1 0"/>
<feBlend mode="normal" in2="effect1_innerShadow_119_198" result="effect2_innerShadow_119_198"/>
</filter>
<filter id="filter3_ii_119_198" x="242.558" y="75.9147" width="85.9067" height="148.057" filterUnits="userSpaceOnUse" color-interpolation-filters="sRGB">
<feFlood flood-opacity="0" result="BackgroundImageFix"/>
<feBlend mode="normal" in="SourceGraphic" in2="BackgroundImageFix" result="shape"/>
<feColorMatrix in="SourceAlpha" type="matrix" values="0 0 0 0 0 0 0 0 0 0 0 0 0 0 0 0 0 0 127 0" result="hardAlpha"/>
<feOffset dy="-6"/>
<feComposite in2="hardAlpha" operator="arithmetic" k2="-1" k3="1"/>
<feColorMatrix type="matrix" values="0 0 0 0 0.225 0 0 0 0 0.21873 0 0 0 0 0.213188 0 0 0 1 0"/>
<feBlend mode="normal" in2="shape" result="effect1_innerShadow_119_198"/>
<feColorMatrix in="SourceAlpha" type="matrix" values="0 0 0 0 0 0 0 0 0 0 0 0 0 0 0 0 0 0 127 0" result="hardAlpha"/>
<feOffset dy="6"/>
<feComposite in2="hardAlpha" operator="arithmetic" k2="-1" k3="1"/>
<feColorMatrix type="matrix" values="0 0 0 0 0.870833 0 0 0 0 0.736792 0 0 0 0 0.618292 0 0 0 1 0"/>
<feBlend mode="normal" in2="effect1_innerShadow_119_198" result="effect2_innerShadow_119_198"/>
</filter>
<filter id="filter4_ii_119_198" x="340.225" y="75.9147" width="85.9067" height="148.057" filterUnits="userSpaceOnUse" color-interpolation-filters="sRGB">
<feFlood flood-opacity="0" result="BackgroundImageFix"/>
<feBlend mode="normal" in="SourceGraphic" in2="BackgroundImageFix" result="shape"/>
<feColorMatrix in="SourceAlpha" type="matrix" values="0 0 0 0 0 0 0 0 0 0 0 0 0 0 0 0 0 0 127 0" result="hardAlpha"/>
<feOffset dy="-6"/>
<feComposite in2="hardAlpha" operator="arithmetic" k2="-1" k3="1"/>
<feColorMatrix type="matrix" values="0 0 0 0 0.225 0 0 0 0 0.21873 0 0 0 0 0.213188 0 0 0 1 0"/>
<feBlend mode="normal" in2="shape" result="effect1_innerShadow_119_198"/>
<feColorMatrix in="SourceAlpha" type="matrix" values="0 0 0 0 0 0 0 0 0 0 0 0 0 0 0 0 0 0 127 0" result="hardAlpha"/>
<feOffset dy="6"/>
<feComposite in2="hardAlpha" operator="arithmetic" k2="-1" k3="1"/>
<feColorMatrix type="matrix" values="0 0 0 0 0.870833 0 0 0 0 0.736792 0 0 0 0 0.618292 0 0 0 1 0"/>
<feBlend mode="normal" in2="effect1_innerShadow_119_198" result="effect2_innerShadow_119_198"/>
</filter>
<clipPath id="clip0_119_198">
<rect x="51.7133" y="78.9147" width="79.9068" height="142.056" rx="11" fill="white"/>
</clipPath>
<clipPath id="clip1_119_198">
<rect x="149.373" y="78.9147" width="78.427" height="142.056" rx="11" fill="white"/>
</clipPath>
<clipPath id="clip2_119_198">
<rect x="245.558" y="78.9147" width="79.9068" height="142.056" rx="11" fill="white"/>
</clipPath>
<clipPath id="clip3_119_198">
<rect x="343.225" y="78.9147" width="79.9068" height="142.056" rx="11" fill="white"/>
</clipPath>
</defs>
</svg>
