<svg width="196" height="83" viewBox="0 0 196 83" fill="none" xmlns="http://www.w3.org/2000/svg">
<path d="M97.002 0.503906C107.288 0.461898 121.309 0.750856 134.41 1.76465C147.486 2.77645 159.73 4.5151 166.406 7.40625C170.137 9.02201 173.571 12.1556 176.67 16.1221C179.772 20.0934 182.564 24.9331 185.002 30.0088C189.877 40.1597 193.36 51.3095 195.077 58.4844L195.134 58.7197L194.984 58.9102C194.97 58.929 194.952 58.9462 194.937 58.9648C195.037 59.3867 195.091 59.8126 195.091 60.2432C195.091 61.8986 194.338 63.4725 192.993 64.9414C191.651 66.4074 189.695 67.7977 187.218 69.1064C182.263 71.7245 175.126 74.0668 166.35 76.0283C148.788 79.9532 124.551 82.3769 97.7959 82.377C71.0411 82.377 46.8031 79.9533 29.2412 76.0283C20.4646 74.0668 13.3278 71.7245 8.37305 69.1064C5.89621 67.7977 3.94006 66.4075 2.59766 64.9414C1.25273 63.4725 0.5 61.8986 0.5 60.2432C0.500054 59.3818 0.705265 58.5391 1.09375 57.7207C2.8627 50.4143 6.28541 39.4444 11.0166 29.5146C13.3875 24.5387 16.0932 19.8103 19.0928 15.9316C22.0886 12.0579 25.4034 8.99892 29.002 7.4082C35.5454 4.5157 47.5432 2.77645 60.3525 1.76465C73.1881 0.750778 86.9241 0.461912 97.002 0.503906Z" fill="#F7405E" stroke="#341D1A"/>
</svg>
