<svg width="240" height="114" viewBox="0 0 240 114" fill="none" xmlns="http://www.w3.org/2000/svg">
<path d="M117.819 0.505859C130.526 0.447342 147.855 0.843258 164.049 2.2373C172.146 2.93433 179.966 3.8816 186.786 5.14746C193.599 6.41191 199.447 8.00016 203.579 9.99219C208.164 12.2025 212.367 16.3962 216.153 21.6973C219.944 27.0044 223.343 33.4593 226.307 40.2441C232.236 53.8137 236.447 68.7581 238.566 78.6143L238.587 78.708L238.571 78.8018C238.428 79.6687 238.227 80.496 237.975 81.2861C236.92 85.8231 232.815 90.0204 226.441 93.7617C220.035 97.5217 211.24 100.88 200.634 103.688C179.416 109.304 150.866 112.74 119.479 112.74C86.7889 112.74 57.1748 109.012 35.7177 102.976C24.9925 99.9582 16.2763 96.3565 10.2303 92.335C4.20349 88.3261 0.713745 83.8182 0.713745 78.9668C0.713748 78.8132 0.719429 78.6599 0.72644 78.5068C0.702687 78.4748 0.676272 78.4452 0.654175 78.4131L0.533081 78.2363L0.577026 78.0273C2.63615 68.1716 6.70523 53.3751 12.4432 39.9531C15.3123 33.242 18.6041 26.8603 22.2792 21.6084C25.9498 16.363 30.0293 12.2065 34.4862 9.99512C38.5038 8.00178 44.1875 6.41306 50.8075 5.14844C57.4354 3.88231 65.0346 2.93439 72.9022 2.2373C88.6363 0.843228 105.473 0.447378 117.819 0.505859ZM115.716 11.5068H115.711C105.131 11.4616 88.7167 12.0781 73.2518 13.4658C65.5196 14.1596 58.0311 15.0457 51.6317 16.1367C45.2206 17.2298 39.9413 18.5221 36.6044 20.0156C30.1071 22.9237 26.2588 30.5573 23.4823 39.6953C22.1004 44.2435 20.9964 49.1192 19.9569 53.8936C18.9191 58.6601 17.9446 63.3331 16.8251 67.4434L16.8055 67.5166L16.7645 67.5801C15.9613 68.8491 15.5585 70.1271 15.5585 71.4121C15.5585 71.6528 15.5724 71.8927 15.6005 72.1318L15.6112 72.2188L15.6014 72.2568L15.6171 72.2744L15.6405 72.415C16.1633 75.6051 19.1972 78.7645 24.5516 81.7109C29.8747 84.6401 37.359 87.2854 46.5165 89.5088C64.826 93.9542 89.7318 96.6924 117.185 96.6924C144.642 96.6924 169.549 93.9539 187.859 89.5078C197.017 87.2841 204.501 84.6385 209.823 81.709C215.177 78.762 218.209 75.6015 218.73 72.4111L218.754 72.2676L218.766 72.2529L218.759 72.2236L218.769 72.1357C218.798 71.8953 218.812 71.654 218.812 71.4121C218.812 69.9802 218.743 64.8282 218.329 61.5957C217.593 55.8513 216.932 50.7981 215.178 44.3564C209.742 30.6979 198.615 22.9633 188.989 18.7773C183.076 16.206 172.807 14.4778 161.225 13.3564C149.665 12.2371 136.862 11.7268 125.927 11.5635C122.276 11.509 118.833 11.4939 115.716 11.5068Z" fill="#B8D2E4" stroke="#341D1A"/>
</svg>
