<svg width="1512" height="272" viewBox="0 0 1512 272" fill="none" xmlns="http://www.w3.org/2000/svg">
<path d="M217.777 174.997C222.278 170.878 233.668 162.607 243.23 162.474C252.791 162.34 257.542 163.642 258.722 164.31C260.198 162.975 263.945 160.102 267.132 159.301C270.319 158.499 272.887 158.967 273.772 159.301" stroke="#8EA3CA"/>
<path d="M1316.57 174.997C1321.07 170.878 1332.46 162.607 1342.02 162.474C1351.58 162.34 1356.33 163.642 1357.51 164.31C1358.99 162.975 1362.73 160.102 1365.92 159.301C1369.11 158.499 1371.68 158.967 1372.56 159.301" stroke="#8EA3CA"/>
<path d="M1512 271.169H1047.72C1047.71 271.169 1047.7 271.169 1047.69 271.169C1047.68 271.169 1047.66 271.169 1047.65 271.169H941.716C941.705 271.169 941.693 271.169 941.682 271.169C941.671 271.169 941.659 271.169 941.648 271.169H667.107C667.097 271.169 667.088 271.169 667.079 271.169C667.07 271.169 667.06 271.169 667.051 271.169H551.165C551.158 271.169 551.15 271.169 551.142 271.169C551.135 271.169 551.127 271.169 551.119 271.169H276.549C276.546 271.169 276.542 271.169 276.539 271.169C276.536 271.169 276.533 271.169 276.53 271.169H0V43.0814C14.3122 42.5248 37.1823 46.421 53.3389 63.9542C62.8487 74.2742 62.5607 90.2817 61.9705 92.1741C67.356 87.9439 82.1552 79.3833 98.2675 78.9826C114.38 78.5818 129.622 84.6043 135.229 87.6656C141.352 85.1609 157.228 81.2869 171.747 85.8288C186.266 90.3707 194.248 97.0723 195.871 100.356C200.445 97.2393 204.945 94.3449 217.339 94.3449C220.247 94.3449 223.026 94.9342 225.528 95.8018V96.6981H226.54C237.415 82.9897 255.751 73.9868 276.539 73.9868C290.391 73.9868 303.155 77.9843 313.348 84.7077C319.446 76.355 330.271 70.8005 342.608 70.8005C358.159 70.8005 371.307 79.626 375.616 91.7565C381.352 88.1086 388.453 85.9511 396.142 85.9511C405.418 85.9511 413.84 89.0914 420.04 94.2004C429.845 80.7393 447.274 71.7844 467.142 71.7844C487.104 71.7844 504.604 80.824 514.383 94.3914C524.173 86.9625 537.044 82.4533 551.142 82.4533C561.654 82.4533 571.483 84.96 579.862 89.3146C583.654 84.0744 590.423 80.5852 598.142 80.5852C608.171 80.5852 616.597 86.4756 618.973 94.4433C630.013 82.011 647.453 73.9868 667.079 73.9868C680.931 73.9868 693.694 77.9843 703.887 84.7077C709.986 76.355 720.81 70.8005 733.147 70.8005C748.698 70.8005 761.846 79.626 766.155 91.7565C771.891 88.1086 778.993 85.9511 786.682 85.9511C795.958 85.9511 804.379 89.0914 810.579 94.2004C820.384 80.7393 837.814 71.7844 857.682 71.7844C877.644 71.7844 895.144 80.824 904.923 94.3914C914.713 86.9625 927.583 82.4533 941.682 82.4533C952.194 82.4533 962.023 84.96 970.401 89.3145C974.193 84.0744 980.962 80.5852 988.681 80.5852C999.073 80.5852 1007.74 86.9093 1009.75 95.3156C1019.67 87.3382 1033.01 82.4533 1047.69 82.4533C1057.94 82.4533 1067.54 84.8378 1075.78 88.9955C1078.73 75.954 1092.12 66.107 1108.18 66.107C1124.04 66.107 1137.29 75.7079 1140.46 88.505C1146.07 84.7146 1153.16 82.4533 1160.86 82.4533C1172.95 82.4533 1183.53 88.0351 1189.27 96.3596C1201.06 81.5246 1220.92 71.7844 1243.43 71.7844C1266.11 71.7844 1286.1 81.6729 1297.86 96.6981H1301.09C1304.51 95.2974 1309.02 94.3449 1316.13 94.3449C1325.33 94.3449 1333.24 100.245 1335.16 102.193C1338.78 99.5213 1349.81 94.3449 1365.04 95.0128C1380.27 95.6808 1390.27 106.312 1393.37 111.544C1396.03 106.201 1403.91 94.8792 1414.18 92.3411C1424.44 89.803 1433.8 91.2836 1437.19 92.3411C1435.27 83.7137 1439.38 67.2886 1457.11 55.605C1472.83 45.2522 1494 45.0852 1499.61 45.2522C1495.47 38.9625 1489.16 23.9452 1496.95 14.1935C1504.74 4.44172 1510.23 0.667928 1512 0V271.169Z" fill="#F4F4F4"/>
<path d="M97.3765 118.223C99.7372 114.772 107.07 107.47 117.517 105.867C127.963 104.264 136.92 109.429 140.092 112.212" stroke="#8EA3CA"/>
<path d="M125.044 122.899C126.815 119.337 132.436 112.179 140.758 112.045C149.08 111.911 153.226 116.442 154.259 118.724" stroke="#8EA3CA"/>
<path d="M138.323 101.024C142.085 99.744 151.204 97.9517 157.578 101.024C163.952 104.097 166.726 107.536 167.316 108.872" stroke="#8EA3CA"/>
<path d="M204.719 116.387C204.793 112.268 202.329 102.894 191.883 98.3525C181.436 93.8106 167.611 99.6884 162.004 103.195" stroke="#8EA3CA"/>
<path d="M196.975 121.73C198.376 119.726 202.862 115.685 209.59 115.552C216.318 115.418 221.541 117.388 223.312 118.39" stroke="#8EA3CA"/>
<path d="M225.528 143.939C227.962 141.768 233.982 137.36 238.586 137.092C243.189 136.825 245.816 137.538 246.554 137.927C248.472 136.146 253.503 132.717 258.284 133.252C263.064 133.786 267.505 136.035 269.129 137.092" stroke="#8EA3CA"/>
<path d="M270.896 165.646C271.338 163.364 272.932 158.132 275.765 155.46C278.598 152.788 281.224 151.787 282.183 151.62" stroke="#8EA3CA"/>
<path d="M342.608 125.07C343.641 122.732 347.123 117.656 352.789 116.053C358.455 114.45 361.052 113.826 361.642 113.715" stroke="#8EA3CA"/>
<path d="M617.487 143.939C619.922 141.768 625.942 137.36 630.545 137.092C635.149 136.825 637.775 137.538 638.513 137.927C640.431 136.146 645.463 132.717 650.243 133.252C655.024 133.786 659.465 136.035 661.088 137.092" stroke="#8EA3CA"/>
<path d="M662.855 165.646C663.298 163.364 664.891 158.132 667.724 155.46C670.557 152.788 673.183 151.787 674.142 151.62" stroke="#8EA3CA"/>
<path d="M734.567 125.07C735.6 122.732 739.082 117.656 744.748 116.053C750.414 114.45 753.011 113.826 753.601 113.715" stroke="#8EA3CA"/>
<path d="M1007.86 143.939C1010.3 141.768 1016.32 137.36 1020.92 137.092C1025.52 136.825 1028.15 137.538 1028.89 137.927C1030.81 136.146 1035.84 132.717 1040.62 133.252C1045.4 133.786 1049.84 136.035 1051.46 137.092" stroke="#8EA3CA"/>
<path d="M1053.23 165.646C1053.67 163.364 1055.27 158.132 1058.1 155.46C1060.93 152.788 1063.56 151.787 1064.52 151.62" stroke="#8EA3CA"/>
<path d="M1124.94 125.07C1125.98 122.732 1129.46 117.656 1135.12 116.053C1140.79 114.45 1143.39 113.826 1143.98 113.715" stroke="#8EA3CA"/>
<path d="M13.9395 59.4457C17.7757 58.8335 26.0237 58.4104 28.3255 61.6165C30.6272 64.8225 31.9404 66.6259 32.3093 67.1269C34.2274 66.459 38.5949 65.5239 40.7196 67.1269C42.8443 68.7299 43.2279 70.2439 43.1541 70.8005" stroke="#8EA3CA"/>
<path d="M61.7464 92.5081L55.5493 100.356" stroke="#8EA3CA"/>
<path d="M56.2109 105.032C58.1291 104.865 62.2309 105.366 63.2933 108.705C64.3556 112.045 63.7359 113.771 63.2933 114.216" stroke="#8EA3CA"/>
<path d="M94.5024 122.231C97.3796 113.882 102.254 106.201 111.102 99.6883C120.176 93.0091 134.673 87.1647 142.198 85.4949" stroke="#8EA3CA"/>
<path d="M407.727 113.354C410.087 109.903 417.421 102.601 427.867 100.997C438.313 99.3944 447.27 104.56 450.442 107.343" stroke="#8EA3CA"/>
<path d="M435.394 118.03C437.165 114.467 442.786 107.309 451.108 107.176C459.43 107.042 463.576 111.573 464.609 113.855" stroke="#8EA3CA"/>
<path d="M448.673 96.155C452.435 94.8748 461.554 93.0826 467.928 96.155C474.302 99.2275 477.076 102.667 477.666 104.003" stroke="#8EA3CA"/>
<path d="M515.069 111.517C515.143 107.398 512.679 98.0252 502.233 93.4833C491.786 88.9414 477.961 94.8192 472.354 98.3258" stroke="#8EA3CA"/>
<path d="M507.325 116.861C508.726 114.857 513.212 110.816 519.94 110.682C526.668 110.549 531.892 112.519 533.662 113.521" stroke="#8EA3CA"/>
<path d="M404.853 117.362C407.73 109.013 412.604 101.332 421.452 94.8192C430.526 88.1399 445.023 82.2956 452.548 80.6257" stroke="#8EA3CA"/>
<path d="M799.191 113.354C801.552 109.903 808.885 102.601 819.331 100.997C829.778 99.3944 838.734 104.56 841.906 107.343" stroke="#8EA3CA"/>
<path d="M826.858 118.03C828.629 114.467 834.251 107.309 842.572 107.176C850.894 107.042 855.04 111.573 856.073 113.855" stroke="#8EA3CA"/>
<path d="M840.137 96.155C843.9 94.8748 853.018 93.0826 859.392 96.155C865.766 99.2275 868.54 102.667 869.131 104.003" stroke="#8EA3CA"/>
<path d="M906.534 111.517C906.608 107.398 904.143 98.0252 893.697 93.4833C883.251 88.9414 869.425 94.8192 863.818 98.3258" stroke="#8EA3CA"/>
<path d="M898.789 116.861C900.191 114.857 904.676 110.816 911.404 110.682C918.133 110.549 923.356 112.519 925.127 113.521" stroke="#8EA3CA"/>
<path d="M796.317 117.362C799.194 109.013 804.069 101.332 812.916 94.8192C821.99 88.1399 836.487 82.2956 844.012 80.6257" stroke="#8EA3CA"/>
<path d="M210.527 95.3751C212.898 94.2939 219.108 92.8364 224.98 95.6558C230.853 98.4752 234.208 102.415 235.151 104.033" stroke="#8EA3CA"/>
<path d="M1324.32 143.939C1326.75 141.768 1332.77 137.36 1337.38 137.092C1341.98 136.825 1344.61 137.538 1345.34 137.927C1347.26 136.146 1352.29 132.717 1357.07 133.252C1361.85 133.786 1366.3 136.035 1367.92 137.092" stroke="#8EA3CA"/>
<path d="M1369.69 165.646C1370.13 163.364 1371.72 158.132 1374.55 155.46C1377.39 152.788 1380.01 151.787 1380.97 151.62" stroke="#8EA3CA"/>
<path d="M1441.4 125.07C1442.43 122.732 1445.91 117.656 1451.58 116.053C1457.24 114.45 1459.84 113.826 1460.43 113.715" stroke="#8EA3CA"/>
<path d="M1295.76 121.73C1297.17 119.726 1301.65 115.685 1308.38 115.552C1315.11 115.418 1320.33 117.388 1322.1 118.39" stroke="#8EA3CA"/>
<path d="M1293.53 106.269C1293.92 103.956 1296.23 98.7396 1302.37 96.3792C1308.51 94.0189 1314.22 94.0984 1316.3 94.4332" stroke="#8EA3CA"/>
</svg>
