<svg width="373" height="273" viewBox="0 0 373 273" fill="none" xmlns="http://www.w3.org/2000/svg">
<path d="M87.6649 124.027C89.7902 120.429 96.392 112.815 105.797 111.143C115.201 109.472 123.264 114.858 126.12 117.759" stroke="#8EA3CA"/>
<path d="M112.573 128.902C114.167 125.188 119.228 117.725 126.72 117.585C134.212 117.446 137.944 122.17 138.874 124.549" stroke="#8EA3CA"/>
<path d="M124.527 106.094C127.915 104.76 136.124 102.891 141.862 106.094C147.601 109.298 150.098 112.884 150.629 114.277" stroke="#8EA3CA"/>
<path d="M184.302 122.112C184.369 117.817 182.15 108.044 172.746 103.309C163.341 98.5734 150.895 104.702 145.847 108.358" stroke="#8EA3CA"/>
<path d="M48.0193 67.4444C33.474 49.1639 12.8848 45.1016 0 45.6819L0 272.105H372V0.76416C370.406 1.46056 365.465 5.39522 358.451 15.5627C351.437 25.7301 357.123 41.3875 360.842 47.9452C355.794 47.7711 336.733 47.9452 322.586 58.7394C306.621 70.921 302.927 88.0462 304.653 97.0414C301.598 95.9388 293.177 94.3951 283.931 97.0414C274.686 99.6877 267.593 111.492 265.202 117.063C262.412 111.608 253.406 100.523 239.698 99.827C225.99 99.1306 216.054 104.528 212.799 107.313C211.072 105.282 203.945 99.1306 195.664 99.1306C184.506 99.1306 180.454 102.148 176.336 105.398C174.875 101.974 167.689 94.987 154.618 90.2515C141.547 85.516 127.254 89.5551 121.742 92.1666C116.694 88.9748 102.972 82.6956 88.4671 83.1134C73.9616 83.5313 60.6385 92.4568 55.79 96.8673C56.3214 94.8942 56.5806 78.2044 48.0193 67.4444Z" fill="#F4F4F4" stroke="#8EA3CA"/>
<path d="M177.33 127.683C178.592 125.594 182.63 121.38 188.687 121.241C194.744 121.102 199.447 123.156 201.041 124.201" stroke="#8EA3CA"/>
<path d="M203.035 150.838C205.227 148.575 210.647 143.979 214.791 143.7C218.936 143.422 221.3 144.165 221.964 144.571C223.691 142.714 228.221 139.139 232.524 139.696C236.828 140.253 240.826 142.598 242.288 143.7" stroke="#8EA3CA"/>
<path d="M196.058 183.221C200.109 178.926 210.364 170.303 218.972 170.163C227.579 170.024 231.856 171.382 232.919 172.078C234.247 170.686 237.621 167.691 240.491 166.855C243.36 166.02 245.671 166.507 246.468 166.855" stroke="#8EA3CA"/>
<path d="M243.879 173.471C244.277 171.092 245.712 165.637 248.262 162.851C250.813 160.065 253.177 159.021 254.04 158.847" stroke="#8EA3CA"/>
<path d="M308.439 131.165C309.369 128.728 312.504 123.435 317.604 121.764C322.705 120.092 325.043 119.442 325.574 119.326" stroke="#8EA3CA"/>
<path d="M12.5492 62.744C16.0029 62.1056 23.4283 61.6646 25.5005 65.0073C27.5727 68.35 28.7549 70.2303 29.087 70.7526C30.8138 70.0562 34.7457 69.0812 36.6585 70.7526C38.5713 72.4239 38.9167 74.0024 38.8503 74.5828" stroke="#8EA3CA"/>
<path d="M55.5883 97.2153L50.0092 105.398" stroke="#8EA3CA"/>
<path d="M50.6049 110.273C52.3317 110.099 56.0245 110.621 56.9809 114.103C57.9373 117.585 57.3794 119.384 56.9809 119.848" stroke="#8EA3CA"/>
<path d="M85.0775 128.205C87.6677 119.5 92.0562 111.492 100.021 104.702C108.19 97.7378 121.241 91.6443 128.016 89.9033" stroke="#8EA3CA"/>
</svg>
