<svg width="1512" height="105" viewBox="0 0 1512 105" fill="none" xmlns="http://www.w3.org/2000/svg">
<path d="M1513.19 94.8984C1513.19 95.8819 1513.68 96.7997 1514.5 97.3417C1516.26 98.4992 1516.26 101.071 1514.5 102.228L1512.71 103.411C1511.26 104.37 1509.38 104.37 1507.92 103.411L1503.03 100.18C1502.85 100.062 1502.65 100 1502.43 100C1502.22 100 1502.01 100.062 1501.83 100.18L1499.74 101.561C1496.59 103.642 1492.5 103.642 1489.35 101.561L1487.26 100.179C1487.08 100.062 1486.87 100 1486.66 100C1486.45 100 1486.24 100.062 1486.07 100.179L1483.97 101.561C1480.82 103.642 1476.73 103.642 1473.58 101.561L1471.49 100.179C1471.31 100.062 1471.1 100 1470.89 100C1470.68 100 1470.47 100.062 1470.3 100.179L1468.2 101.561C1465.05 103.642 1460.96 103.642 1457.81 101.561L1455.72 100.179C1455.54 100.062 1455.33 100 1455.12 100C1454.91 100 1454.7 100.062 1454.53 100.179L1452.43 101.561C1449.28 103.642 1445.19 103.642 1442.04 101.561L1439.95 100.179C1439.77 100.062 1439.56 100 1439.35 100C1439.14 100 1438.93 100.062 1438.76 100.179L1436.66 101.561C1433.51 103.642 1429.42 103.642 1426.27 101.561L1424.18 100.18C1424 100.063 1423.79 100 1423.58 100C1423.37 100 1423.16 100.062 1422.98 100.18L1420.89 101.561C1417.74 103.642 1413.65 103.642 1410.5 101.561L1408.41 100.179C1408.23 100.062 1408.02 100 1407.81 100C1407.6 100 1407.39 100.062 1407.21 100.179L1405.12 101.561C1401.97 103.642 1397.88 103.642 1394.73 101.561L1392.64 100.179C1392.46 100.062 1392.25 100 1392.04 100C1391.83 100 1391.62 100.062 1391.44 100.179L1389.35 101.561C1386.2 103.642 1382.11 103.642 1378.96 101.561L1376.86 100.179C1376.69 100.062 1376.48 100 1376.27 100C1376.06 100 1375.85 100.062 1375.67 100.179L1373.58 101.561C1370.43 103.642 1366.34 103.642 1363.19 101.562L1361.09 100.179C1360.92 100.062 1360.71 100 1360.5 100C1360.29 100 1360.08 100.062 1359.9 100.179L1357.81 101.561C1354.66 103.642 1350.57 103.642 1347.42 101.561L1345.32 100.179C1345.15 100.062 1344.94 100 1344.73 100C1344.52 100 1344.31 100.062 1344.13 100.179L1342.04 101.561C1338.89 103.642 1334.8 103.642 1331.65 101.561L1329.55 100.179C1329.38 100.062 1329.17 100 1328.96 100C1328.74 100 1328.54 100.062 1328.36 100.179L1326.27 101.561C1323.12 103.642 1319.03 103.642 1315.87 101.561L1313.78 100.179C1313.61 100.062 1313.4 100 1313.19 100C1312.97 100 1312.77 100.062 1312.59 100.179L1310.5 101.561C1307.35 103.642 1303.26 103.642 1300.11 101.561L1298.01 100.179C1297.84 100.062 1297.63 100 1297.42 100C1297.2 100 1297 100.062 1296.82 100.179L1294.73 101.561C1291.57 103.642 1287.49 103.642 1284.33 101.561L1282.24 100.179C1282.06 100.062 1281.86 100 1281.64 100C1281.43 100 1281.22 100.062 1281.05 100.179L1278.96 101.561C1275.8 103.642 1271.71 103.642 1268.56 101.561L1267.13 100.616C1266.52 100.214 1265.81 100 1265.08 100C1264.35 100 1263.64 100.214 1263.03 100.616L1262.09 101.233C1259.6 102.876 1256.38 102.876 1253.89 101.233L1253.62 101.055C1252.57 100.367 1251.35 100 1250.1 100C1248.85 100 1247.63 100.367 1246.59 101.055L1246.32 101.233C1243.83 102.876 1240.6 102.876 1238.11 101.233L1237.84 101.055C1236.8 100.367 1235.58 100 1234.33 100C1233.08 100 1231.86 100.367 1230.82 101.055L1230.55 101.233C1228.06 102.876 1224.83 102.876 1222.34 101.233L1222.07 101.055C1221.03 100.367 1219.81 100 1218.56 100C1217.31 100 1216.09 100.367 1215.05 101.055L1214.78 101.233C1212.29 102.876 1209.06 102.876 1206.57 101.233L1206.3 101.054C1205.26 100.367 1204.04 100 1202.79 100C1201.54 100 1200.32 100.367 1199.28 101.055L1199.01 101.233C1196.52 102.876 1193.29 102.876 1190.8 101.233L1190.53 101.054C1189.49 100.367 1188.27 100 1187.02 100C1185.77 100 1184.55 100.367 1183.51 101.055L1183.24 101.233C1180.75 102.876 1177.52 102.876 1175.03 101.233L1174.76 101.055C1173.72 100.367 1172.5 100 1171.25 100C1170 100 1168.78 100.367 1167.74 101.055L1167.47 101.233C1164.98 102.876 1161.75 102.876 1159.26 101.233L1158.99 101.055C1157.95 100.367 1156.73 100 1155.48 100C1154.23 100 1153.01 100.367 1151.97 101.055L1151.7 101.233C1149.21 102.876 1145.98 102.876 1143.49 101.233L1143.22 101.054C1142.18 100.367 1140.96 100 1139.71 100C1138.46 100 1137.24 100.367 1136.2 101.055L1135.93 101.233C1133.44 102.876 1130.21 102.876 1127.72 101.233L1127.45 101.055C1126.41 100.367 1125.19 100 1123.94 100C1122.69 100 1121.47 100.367 1120.43 101.055L1120.16 101.233C1117.67 102.876 1114.44 102.876 1111.95 101.233L1111.69 101.056C1110.64 100.367 1109.42 100 1108.17 100C1106.92 100 1105.7 100.367 1104.66 101.055L1104.39 101.233C1101.9 102.876 1098.67 102.876 1096.18 101.233L1095.91 101.056C1094.87 100.367 1093.65 100 1092.4 100C1091.15 100 1089.93 100.367 1088.89 101.056L1088.62 101.233C1086.13 102.876 1082.9 102.876 1080.41 101.233L1080.14 101.055C1079.1 100.367 1077.88 100 1076.63 100C1075.38 100 1074.16 100.367 1073.12 101.055L1072.85 101.233C1070.36 102.876 1067.13 102.876 1064.64 101.233L1064.37 101.055C1063.33 100.367 1062.11 100 1060.86 100C1059.61 100 1058.39 100.367 1057.35 101.056L1057.08 101.233C1054.59 102.876 1051.36 102.876 1048.87 101.233L1048.6 101.056C1047.56 100.367 1046.34 100 1045.09 100C1043.84 100 1042.62 100.367 1041.57 101.056L1041.31 101.233C1038.82 102.876 1035.59 102.876 1033.1 101.233L1032.83 101.055C1031.79 100.367 1030.57 100 1029.32 100C1028.07 100 1026.85 100.367 1025.8 101.055L1025.53 101.233C1023.05 102.876 1019.82 102.876 1017.33 101.233C1016.11 100.429 1014.68 100 1013.22 100H1011.55C1009.9 100 1008.28 100.486 1006.9 101.397C1004.08 103.259 1000.43 103.259 997.606 101.397L996.426 100.618C995.816 100.215 995.101 100 994.37 100C993.639 100 992.923 100.215 992.313 100.618L991.134 101.397C988.314 103.259 984.656 103.259 981.836 101.397L980.656 100.618C980.046 100.215 979.331 100 978.599 100C977.868 100 977.153 100.215 976.543 100.618L975.363 101.397C972.544 103.259 968.885 103.259 966.065 101.397L964.886 100.618C964.276 100.215 963.561 100 962.83 100C962.098 100 961.383 100.215 960.773 100.618L959.594 101.397C956.774 103.259 953.116 103.259 950.296 101.397L949.116 100.618C948.506 100.215 947.79 100 947.059 100C946.328 100 945.613 100.215 945.003 100.618L943.823 101.397C941.004 103.259 937.345 103.259 934.525 101.397L933.345 100.618C932.735 100.215 932.02 100 931.289 100C930.557 100 929.842 100.215 929.232 100.618L928.053 101.397C925.233 103.259 921.575 103.259 918.755 101.397L917.575 100.618C916.965 100.215 916.249 100 915.518 100C914.787 100 914.072 100.215 913.462 100.618L912.281 101.397C909.462 103.259 905.803 103.259 902.984 101.397L901.804 100.618C901.194 100.215 900.479 100 899.748 100C899.017 100 898.302 100.215 897.693 100.617L896.512 101.397C893.692 103.259 890.033 103.259 887.213 101.397L886.032 100.617C885.422 100.215 884.708 100 883.977 100C883.247 100 882.532 100.215 881.922 100.617L880.742 101.397C877.922 103.259 874.263 103.259 871.443 101.397L870.262 100.617C869.653 100.215 868.938 100 868.208 100C867.478 100 866.764 100.215 866.154 100.617L864.973 101.397C862.153 103.259 858.494 103.259 855.674 101.397L854.493 100.617C853.883 100.215 853.169 100 852.438 100C851.707 100 850.992 100.215 850.382 100.617L849.201 101.397C846.381 103.259 842.722 103.259 839.902 101.397L838.721 100.617C838.112 100.215 837.397 100 836.667 100C835.937 100 835.223 100.215 834.613 100.617L833.432 101.397C830.612 103.259 826.953 103.259 824.133 101.397L822.953 100.618C822.343 100.215 821.627 100 820.896 100C820.165 100 819.45 100.215 818.839 100.618L817.66 101.397C814.84 103.259 811.181 103.259 808.361 101.397L807.179 100.617C806.57 100.214 805.855 100 805.125 100C804.395 100 803.681 100.215 803.071 100.617L801.89 101.397C799.07 103.259 795.411 103.259 792.591 101.397L791.41 100.617C790.8 100.215 790.086 100 789.355 100C788.625 100 787.91 100.215 787.3 100.617L786.12 101.397C783.3 103.259 779.641 103.259 776.821 101.397L775.64 100.617C775.03 100.215 774.315 100 773.584 100C772.853 100 772.138 100.215 771.528 100.618L770.348 101.397C767.528 103.259 763.869 103.259 761.049 101.397L759.869 100.617C759.259 100.215 758.545 100 757.815 100C757.084 100 756.37 100.215 755.761 100.617L754.58 101.397C751.76 103.259 748.101 103.259 745.281 101.397L744.1 100.618C743.49 100.215 742.775 100 742.044 100C741.312 100 740.597 100.215 739.987 100.618L738.807 101.397C735.987 103.259 732.328 103.259 729.508 101.397L728.327 100.617C727.717 100.214 727.003 100 726.273 100C725.542 100 724.828 100.215 724.219 100.617L723.038 101.397C720.218 103.259 716.559 103.259 713.739 101.397L712.557 100.617C711.948 100.215 711.233 100 710.503 100C709.772 100 709.057 100.215 708.448 100.617L707.267 101.397C704.446 103.259 700.787 103.259 697.967 101.397L696.786 100.617C696.177 100.215 695.463 100 694.733 100C694.002 100 693.288 100.215 692.679 100.617L691.498 101.397C688.678 103.259 685.019 103.259 682.199 101.397L681.018 100.617C680.408 100.215 679.693 100 678.962 100C678.231 100 677.516 100.215 676.906 100.618L675.726 101.397C672.906 103.259 669.247 103.259 666.427 101.397L665.246 100.617C664.636 100.215 663.922 100 663.191 100C662.46 100 661.746 100.215 661.136 100.617L659.956 101.397C657.136 103.259 653.477 103.259 650.657 101.397L649.477 100.617C648.867 100.215 648.152 100 647.421 100C646.69 100 645.975 100.215 645.365 100.617L644.185 101.397C641.365 103.259 637.706 103.259 634.886 101.397L633.706 100.618C633.095 100.215 632.38 100 631.649 100C630.918 100 630.203 100.215 629.592 100.618L628.412 101.397C625.593 103.259 621.934 103.259 619.114 101.397L617.935 100.618C617.325 100.215 616.61 100 615.879 100C615.147 100 614.432 100.215 613.822 100.618L612.643 101.397C609.824 103.259 606.166 103.259 603.346 101.397L602.166 100.618C601.556 100.215 600.84 100 600.109 100C599.377 100 598.661 100.215 598.051 100.618L596.872 101.397C594.053 103.259 590.394 103.259 587.574 101.397L586.394 100.618C585.784 100.215 585.069 100 584.338 100C583.606 100 582.891 100.215 582.281 100.618L581.102 101.397C578.282 103.259 574.623 103.259 571.804 101.397L570.624 100.618C570.013 100.215 569.298 100 568.567 100C567.836 100 567.121 100.215 566.51 100.618L565.331 101.397C562.512 103.259 558.853 103.259 556.033 101.397L554.854 100.618C554.244 100.215 553.529 100 552.798 100C552.066 100 551.351 100.215 550.741 100.618L549.562 101.397C546.743 103.259 543.085 103.259 540.265 101.397L539.087 100.619C538.476 100.215 537.76 100 537.027 100C536.295 100 535.579 100.215 534.968 100.619L533.79 101.397C530.971 103.259 527.312 103.259 524.492 101.397L523.312 100.618C522.702 100.215 521.987 100 521.256 100C520.524 100 519.809 100.215 519.199 100.618L518.02 101.397C515.2 103.259 511.541 103.259 508.722 101.397L508.061 100.96C507.112 100.334 506.001 100 504.865 100C503.729 100 502.618 100.334 501.67 100.96L500.759 101.561C497.608 103.642 493.519 103.642 490.367 101.561L488.275 100.179C488.098 100.062 487.89 100 487.678 100C487.466 100 487.259 100.062 487.082 100.179L484.989 101.561C481.838 103.642 477.749 103.642 474.597 101.561L472.504 100.179C472.327 100.062 472.12 100 471.908 100C471.696 100 471.488 100.062 471.311 100.179L469.219 101.561C466.068 103.642 461.978 103.642 458.827 101.561L456.735 100.179C456.558 100.062 456.35 100 456.138 100C455.926 100 455.719 100.062 455.542 100.179L453.449 101.561C450.298 103.642 446.209 103.642 443.057 101.561L440.965 100.179C440.788 100.062 440.58 100 440.367 100C440.155 100 439.947 100.062 439.77 100.179L437.678 101.561C434.527 103.642 430.437 103.642 427.286 101.561L425.193 100.179C425.016 100.062 424.808 100 424.596 100C424.384 100 424.177 100.062 424 100.179L421.907 101.561C418.756 103.642 414.667 103.642 411.515 101.561L409.422 100.179C409.245 100.062 409.038 100 408.826 100C408.614 100 408.406 100.062 408.229 100.179L406.136 101.561C402.985 103.642 398.896 103.642 395.744 101.561L393.652 100.179C393.475 100.062 393.267 100 393.055 100C392.843 100 392.636 100.062 392.459 100.179L390.366 101.561C387.214 103.642 383.125 103.642 379.974 101.561L377.882 100.179C377.704 100.062 377.497 100 377.284 100C377.072 100 376.864 100.062 376.687 100.179L374.595 101.561C371.444 103.642 367.354 103.642 364.203 101.561L362.111 100.179C361.934 100.062 361.726 100 361.514 100C361.302 100 361.095 100.062 360.918 100.179L358.826 101.561C355.675 103.642 351.586 103.642 348.435 101.562L346.342 100.179C346.164 100.062 345.957 100 345.744 100C345.532 100 345.324 100.062 345.147 100.179L343.054 101.561C339.903 103.642 335.814 103.642 332.662 101.561L330.57 100.179C330.393 100.062 330.185 100 329.973 100C329.761 100 329.554 100.062 329.377 100.179L327.285 101.561C324.134 103.642 320.045 103.642 316.894 101.562L314.801 100.179C314.623 100.062 314.416 100 314.203 100C313.991 100 313.783 100.062 313.606 100.179L311.513 101.561C308.362 103.642 304.273 103.642 301.121 101.561L299.029 100.179C298.852 100.062 298.644 100 298.432 100C298.22 100 298.013 100.062 297.836 100.179L295.743 101.561C292.592 103.642 288.503 103.642 285.351 101.561L283.26 100.179C283.082 100.062 282.875 100 282.662 100C282.45 100 282.242 100.062 282.065 100.179L279.972 101.561C276.821 103.642 272.732 103.642 269.58 101.561L267.488 100.179C267.311 100.062 267.103 100 266.891 100C266.678 100 266.471 100.062 266.293 100.179L264.201 101.561C261.049 103.642 256.96 103.642 253.809 101.561L251.716 100.179C251.539 100.062 251.332 100 251.12 100C250.908 100 250.7 100.062 250.523 100.179L248.431 101.561C245.28 103.642 241.192 103.642 238.04 101.562L235.948 100.18C235.77 100.062 235.562 100 235.349 100C235.136 100 234.928 100.063 234.751 100.18L232.659 101.561C229.508 103.642 225.419 103.642 222.268 101.561L220.175 100.179C219.998 100.062 219.791 100 219.579 100C219.367 100 219.159 100.062 218.982 100.179L216.89 101.561C213.739 103.642 209.649 103.642 206.498 101.561L204.406 100.179C204.229 100.062 204.021 100 203.809 100C203.596 100 203.389 100.062 203.211 100.179L201.119 101.561C197.967 103.642 193.878 103.642 190.727 101.561L188.634 100.179C188.457 100.062 188.25 100 188.038 100C187.826 100 187.618 100.062 187.441 100.179L185.349 101.561C182.197 103.642 178.108 103.642 174.957 101.561L172.864 100.179C172.687 100.062 172.479 100 172.267 100C172.055 100 171.848 100.062 171.671 100.179L169.578 101.561C166.426 103.642 162.337 103.642 159.186 101.561L157.093 100.179C156.916 100.062 156.709 100 156.497 100C156.285 100 156.077 100.062 155.9 100.179L153.808 101.561C150.657 103.642 146.567 103.642 143.416 101.561L141.324 100.179C141.147 100.062 140.939 100 140.727 100C140.514 100 140.307 100.062 140.129 100.179L138.037 101.561C134.886 103.642 130.797 103.642 127.645 101.561L125.553 100.179C125.375 100.062 125.168 100 124.955 100C124.743 100 124.535 100.062 124.358 100.179L122.265 101.561C119.114 103.642 115.024 103.642 111.873 101.561L109.781 100.179C109.604 100.062 109.396 100 109.184 100C108.972 100 108.765 100.062 108.588 100.179L106.496 101.561C103.345 103.642 99.256 103.642 96.1049 101.562L94.0112 100.179C93.8342 100.062 93.6268 100 93.4147 100C93.2026 100 92.9951 100.062 92.8181 100.179L90.7258 101.561C87.5744 103.642 83.4853 103.642 80.3338 101.561L78.2407 100.179C78.0637 100.062 77.8563 100 77.6442 100C77.4321 100 77.2246 100.062 77.0476 100.179L74.9553 101.561C71.8039 103.642 67.7148 103.642 64.5633 101.561L62.4702 100.179C62.2932 100.062 62.0858 100 61.8737 100C61.6615 100 61.4541 100.062 61.2771 100.179L59.184 101.561C56.0325 103.642 51.9434 103.642 48.792 101.561L46.6997 100.179C46.5227 100.062 46.3153 100 46.1032 100C45.891 100 45.6836 100.062 45.5066 100.179L43.4145 101.561C40.2636 103.642 36.1749 103.642 33.0238 101.562L30.931 100.18C30.7535 100.062 30.5454 100 30.3327 100C30.1199 100 29.9118 100.063 29.7343 100.18L27.6428 101.561C24.4914 103.642 20.4023 103.642 17.2508 101.561L15.1577 100.179C14.9807 100.062 14.7733 100 14.5612 100C14.3491 100 14.1416 100.062 13.9646 100.179L9.07179 103.411C7.61955 104.37 5.73511 104.37 4.28277 103.411L-0.177206 100.466C-0.665667 100.144 -0.665683 99.4268 -0.177238 99.1042C0.0514786 98.9532 0.189086 98.6974 0.189086 98.4233V24C0.189086 10.7452 10.9343 0 24.1891 0H1489.19C1502.44 0 1513.19 10.7452 1513.19 24V94.8984Z" fill="#FFF6DE"/>
</svg>
