<svg width="317" height="157" viewBox="0 0 317 157" fill="none" xmlns="http://www.w3.org/2000/svg">
<g filter="url(#filter0_d_22_5510)">
<path d="M48.9188 132.336C52.4487 140.582 56.3178 146.547 62.6708 147.072L266.233 145.649C268.717 145.854 271.08 145.277 273.067 144.128C279.235 140.564 280.373 132.137 283.69 125.833L309.862 76.0882C313.179 69.784 316.302 61.5215 310.804 56.9926C309.032 55.5329 306.796 54.5758 304.313 54.3705L13.5447 3.04089C11.6846 2.88712 9.89203 3.17227 8.27407 3.80793C0.603909 6.82138 2.71373 17.2852 5.7849 24.9325L48.9188 132.336Z" fill="#FFC434"/>
<path d="M62.6141 148.573L62.6817 148.573L266.196 147.15C268.959 147.361 271.595 146.712 273.818 145.427C277.325 143.4 279.314 140.036 280.821 136.613C281.574 134.901 282.24 133.092 282.898 131.391C283.565 129.665 284.231 128.026 285.017 126.532L311.19 76.7863C312.866 73.5993 314.576 69.7744 315.123 66.0955C315.675 62.3772 315.06 58.5558 311.757 55.8351C309.774 54.2017 307.28 53.1288 304.517 52.8838L13.8056 1.56379L13.7371 1.55126L13.668 1.54555C11.5755 1.37262 9.55341 1.69353 7.72584 2.41149C5.48357 3.29243 3.90358 4.74962 2.90078 6.5848C1.91457 8.38974 1.52749 10.4823 1.50184 12.6141C1.45092 16.8536 2.82937 21.598 4.39312 25.4917L47.5273 132.895L47.5328 132.911L47.5404 132.926C49.3201 137.084 51.2407 140.807 53.5941 143.572C55.9757 146.37 58.8696 148.263 62.5469 148.567L62.6141 148.573Z" stroke="#515795" stroke-width="3"/>
</g>
<defs>
<filter id="filter0_d_22_5510" x="0" y="0" width="316.801" height="156.073" filterUnits="userSpaceOnUse" color-interpolation-filters="sRGB">
<feFlood flood-opacity="0" result="BackgroundImageFix"/>
<feColorMatrix in="SourceAlpha" type="matrix" values="0 0 0 0 0 0 0 0 0 0 0 0 0 0 0 0 0 0 127 0" result="hardAlpha"/>
<feOffset dy="6"/>
<feComposite in2="hardAlpha" operator="out"/>
<feColorMatrix type="matrix" values="0 0 0 0 0 0 0 0 0 0 0 0 0 0 0 0 0 0 0.1 0"/>
<feBlend mode="normal" in2="BackgroundImageFix" result="effect1_dropShadow_22_5510"/>
<feBlend mode="normal" in="SourceGraphic" in2="effect1_dropShadow_22_5510" result="shape"/>
</filter>
</defs>
</svg>
