<svg width="250" height="77" viewBox="0 0 250 77" fill="none" xmlns="http://www.w3.org/2000/svg">
<path fill-rule="evenodd" clip-rule="evenodd" d="M6.59705 2.27535L0.250276 35.0642L0.294824 35.0803C0.0993465 35.9639 0 36.8556 0 37.7546C0 59.0493 55.7485 76.3121 124.518 76.3121C193.287 76.3121 249.035 59.0493 249.035 37.7546C249.035 36.9547 248.957 36.1606 248.802 35.3728L243.679 3.40439L243.554 3.24528C243.419 4.05913 243.241 4.83885 243.023 5.58583C239.028 24.64 187.718 39.7127 125.008 39.7127C59.6912 39.7127 6.74172 23.3609 6.74172 3.18988C6.74172 2.96381 6.74837 2.73823 6.76162 2.51314C6.70086 2.43245 6.64596 2.35317 6.59705 2.27535ZM7.0402 0L7.03679 0.00359537L6.97026 0.347266C6.99337 0.232021 7.01668 0.116263 7.0402 0Z" fill="#5E6D84"/>
</svg>
