<svg width="205" height="56" viewBox="0 0 205 56" fill="none" xmlns="http://www.w3.org/2000/svg">
<mask id="path-1-outside-1_754_85" maskUnits="userSpaceOnUse" x="-0.836426" y="-0.244751" width="206" height="56" fill="black">
<rect fill="white" x="-0.836426" y="-0.244751" width="206" height="56"/>
<path fill-rule="evenodd" clip-rule="evenodd" d="M6.18584 3.26198L1.16357 28.2071C1.20688 28.2192 1.25072 28.231 1.29496 28.2429C1.33581 28.2538 1.37701 28.2649 1.41846 28.2764C1.24997 28.8467 1.16357 29.4225 1.16357 30.003C1.16444 43.3631 46.5418 54.1934 102.518 54.1934C158.494 54.1934 203.873 43.3631 203.874 30.003C203.874 29.4241 203.786 28.85 203.619 28.2813C203.66 28.2688 203.702 28.2569 203.743 28.245C203.787 28.2324 203.831 28.22 203.874 28.2071L199.928 2.75525C199.877 2.83311 199.825 2.91723 199.77 3.0084C199.77 14.956 156.434 24.6414 102.975 24.6414C49.8949 24.6414 6.79385 15.0927 6.18584 3.26198Z"/>
</mask>
<path fill-rule="evenodd" clip-rule="evenodd" d="M6.18584 3.26198L1.16357 28.2071C1.20688 28.2192 1.25072 28.231 1.29496 28.2429C1.33581 28.2538 1.37701 28.2649 1.41846 28.2764C1.24997 28.8467 1.16357 29.4225 1.16357 30.003C1.16444 43.3631 46.5418 54.1934 102.518 54.1934C158.494 54.1934 203.873 43.3631 203.874 30.003C203.874 29.4241 203.786 28.85 203.619 28.2813C203.66 28.2688 203.702 28.2569 203.743 28.245C203.787 28.2324 203.831 28.22 203.874 28.2071L199.928 2.75525C199.877 2.83311 199.825 2.91723 199.77 3.0084C199.77 14.956 156.434 24.6414 102.975 24.6414C49.8949 24.6414 6.79385 15.0927 6.18584 3.26198Z" fill="#AB1C34"/>
<path d="M1.16357 28.2071L0.183246 28.0097L-7.52211e-05 28.9202L0.894469 29.1702L1.16357 28.2071ZM6.18584 3.26198L7.18452 3.21065L5.20551 3.0646L6.18584 3.26198ZM1.29496 28.2429L1.03537 29.2086L1.03539 29.2086L1.29496 28.2429ZM1.41846 28.2764L2.37748 28.5598L2.66554 27.5848L1.68591 27.3128L1.41846 28.2764ZM1.16357 30.003L0.163574 30.003V30.003L1.16357 30.003ZM102.518 54.1934V55.1934V55.1934V54.1934ZM203.874 30.003L204.874 30.003V30.003H203.874ZM203.619 28.2813L203.332 27.3232L202.378 27.6087L202.659 28.5639L203.619 28.2813ZM203.743 28.245L203.468 27.2837L203.468 27.2838L203.743 28.245ZM203.874 28.2071L204.162 29.1645L204.995 28.9135L204.862 28.0539L203.874 28.2071ZM199.928 2.75525L200.916 2.60204L200.512 4.86374e-05L199.087 2.21385L199.928 2.75525ZM199.77 3.0084L198.913 2.49411L198.77 2.73155V3.0084H199.77ZM1.16357 28.2071L2.1439 28.4044L7.16617 3.45935L6.18584 3.26198L5.20551 3.0646L0.183246 28.0097L1.16357 28.2071ZM1.29496 28.2429L1.55456 27.2771C1.50947 27.265 1.47043 27.2545 1.43268 27.244L1.16357 28.2071L0.894469 29.1702C0.943331 29.1838 0.991966 29.1969 1.03537 29.2086L1.29496 28.2429ZM1.41846 28.2764L1.68591 27.3128C1.63989 27.3001 1.59479 27.288 1.55454 27.2771L1.29496 28.2429L1.03539 29.2086C1.07683 29.2197 1.11413 29.2297 1.15101 29.24L1.41846 28.2764ZM1.16357 30.003H2.16357C2.16357 29.5231 2.23481 29.0426 2.37748 28.5598L1.41846 28.2764L0.459438 27.9931C0.265134 28.6507 0.163574 29.3219 0.163574 30.003H1.16357ZM102.518 54.1934V53.1934C74.5844 53.1934 49.3276 50.4902 31.0822 46.1355C21.9516 43.9563 14.6326 41.3764 9.62036 38.5481C4.52735 35.6742 2.16375 32.7482 2.16357 30.0029L1.16357 30.003L0.163574 30.003C0.16383 33.9378 3.47273 37.3756 8.63749 40.2899C13.883 43.2499 21.407 45.8825 30.6179 48.0809C49.0555 52.4814 74.4755 55.1934 102.518 55.1934V54.1934ZM203.874 30.003L202.874 30.0029C202.873 32.7482 200.51 35.6742 195.417 38.5481C190.404 41.3764 183.085 43.9563 173.954 46.1356C155.709 50.4902 130.452 53.1934 102.518 53.1934V54.1934V55.1934C130.561 55.1934 155.981 52.4814 174.419 48.0809C183.63 45.8825 191.154 43.2499 196.399 40.2899C201.564 37.3756 204.873 33.9378 204.874 30.003L203.874 30.003ZM203.619 28.2813L202.659 28.5639C202.802 29.0471 202.874 29.526 202.874 30.003H203.874H204.874C204.874 29.3221 204.771 28.653 204.578 27.9987L203.619 28.2813ZM203.743 28.245L203.468 27.2838C203.427 27.2953 203.38 27.3088 203.332 27.3232L203.619 28.2813L203.905 29.2393C203.941 29.2287 203.977 29.2184 204.019 29.2063L203.743 28.245ZM203.874 28.2071L203.585 27.2496C203.55 27.2602 203.513 27.2708 203.468 27.2837L203.743 28.245L204.019 29.2063C204.062 29.1941 204.112 29.1797 204.162 29.1645L203.874 28.2071ZM199.928 2.75525L198.939 2.90845L202.885 28.3603L203.874 28.2071L204.862 28.0539L200.916 2.60204L199.928 2.75525ZM199.928 2.75525L199.087 2.21385C199.031 2.30044 198.973 2.39359 198.913 2.49411L199.77 3.0084L200.628 3.52269C200.677 3.44087 200.724 3.36579 200.768 3.29665L199.928 2.75525ZM199.77 3.0084H198.77C198.77 4.17777 198.245 5.40593 197.066 6.69291C195.883 7.98539 194.09 9.28018 191.697 10.5448C186.912 13.073 179.923 15.3802 171.201 17.3293C153.776 21.2239 129.653 23.6414 102.975 23.6414V24.6414V25.6414C129.755 25.6414 154.031 23.2162 171.638 19.2812C180.433 17.3154 187.619 14.9612 192.631 12.3131C195.136 10.9896 197.146 9.56753 198.541 8.0435C199.942 6.51396 200.77 4.82592 200.77 3.0084H199.77ZM102.975 24.6414V23.6414C76.4855 23.6414 52.516 21.258 35.1192 17.4118C26.4134 15.487 19.4053 13.207 14.5601 10.7051C12.1366 9.45371 10.2997 8.16977 9.06287 6.88406C7.82854 5.60098 7.2443 4.37384 7.18452 3.21065L6.18584 3.26198L5.18716 3.3133C5.27938 5.1078 6.17506 6.76703 7.62154 8.27063C9.06548 9.77159 11.1103 11.1746 13.6425 12.4821C18.7084 15.098 25.9071 17.4234 34.6875 19.3646C52.2632 23.2504 76.3842 25.6414 102.975 25.6414V24.6414Z" fill="#341D1A" mask="url(#path-1-outside-1_754_85)"/>
</svg>
