<svg width="59" height="111" viewBox="0 0 59 111" fill="none" xmlns="http://www.w3.org/2000/svg">
<g clip-path="url(#clip0_58_825)">
<path d="M22.6124 38.603C20.6624 40.0099 18.5683 40.086 17.6606 39.9372C17.5879 39.9253 17.5226 39.9043 17.4619 39.8781L16.7911 39.5895C16.6241 39.5177 16.4932 39.4062 16.5107 39.2446C16.5629 38.7646 17.1284 37.8099 19.1479 36.5097C21.3029 35.1224 23.4472 35.195 24.5403 35.4687C24.789 35.5309 24.9424 35.6922 24.8981 35.9073C24.7857 36.4534 24.2386 37.4298 22.6124 38.603Z" fill="#A0EBB5"/>
<path d="M16.644 39.2572C17.069 39.0958 17.5214 38.9749 17.9463 38.8924C18.7139 38.7434 19.6355 38.4527 20.6816 37.9365C22.3731 37.1017 23.6843 36.2909 24.5447 35.6988C24.756 35.923 24.8218 36.2199 24.6613 36.5109C24.359 37.0588 23.7494 37.783 22.6129 38.603C20.7669 39.9346 18.7915 40.0737 17.8161 39.9585C17.6408 39.9378 17.4741 39.8824 17.3158 39.8143C17.0068 39.6814 16.7478 39.4837 16.644 39.2572Z" fill="#6EAF80"/>
<path fill-rule="evenodd" clip-rule="evenodd" d="M19.6148 60.0551C20.6464 58.6555 20.4291 57.9085 20.8105 57.1078C21.6665 57.041 23.4095 58.0076 24.0695 58.437C29.7047 62.1099 29.6485 70.3863 24.7107 74.0865C22.8917 75.447 20.2277 76.613 17.2489 76.0891C14.5725 75.617 12.6261 74.4126 11.2413 72.7493C5.97631 66.4343 10.213 56.5869 19.2603 56.8042C19.5128 58.0656 17.1596 60.2753 19.6148 60.0551ZM4.04406 55.9538C3.78083 56.3616 4.10316 55.991 3.67754 56.2807C2.23821 57.2623 0.615901 57.365 1.36491 58.3644C2.05351 59.2933 4.56304 57.3566 5.21746 57.1763C5.8962 57.7749 6.56475 59.278 6.8876 60.2424C8.22023 64.2228 6.48842 68.6718 3.21685 71.063C1.49103 72.3228 -1.18396 73.0522 -3.37896 72.7859C-7.077 72.3356 -10.1348 70.0215 -11.4165 66.8007C-14.472 59.1039 -7.19063 51.0795 1.12279 54.1047C1.79993 54.3514 3.60181 55.2732 4.04406 55.9538ZM19.5759 55.3294C16.8786 55.641 15.7511 55.2056 12.766 57.0091C11.4173 57.8233 9.89523 59.2512 9.11673 60.6833C8.97251 60.9529 8.91504 61.113 8.66754 61.3016C8.33618 60.3527 8.52463 60.2058 7.82071 58.5736C7.45037 57.7142 6.81258 56.9988 6.50547 56.2825C6.74077 55.9366 7.75575 55.1991 8.17758 54.8124C8.78412 54.2608 9.15854 53.9033 9.72298 53.2836C15.0483 47.4625 15.7613 41.5544 16.047 41.1002C16.4735 41.5327 17.3849 43.2721 17.701 43.906C18.2112 44.9299 18.6397 45.9569 19.0219 47.1981C19.3971 48.4154 19.6851 49.7301 19.7446 51.0992C19.7828 51.923 19.7767 54.6419 19.5759 55.3294ZM16.7812 39.5424C16.6648 38.9704 17.5746 37.9488 17.9119 37.5715C18.3506 37.075 18.9884 36.5464 19.6339 36.2148C20.919 35.5578 23.5691 35.4331 24.7805 36.1535C24.6552 36.6742 23.9117 37.6043 23.5632 38.0033C21.8242 40.013 18.9911 40.424 16.7812 39.5424ZM6.11232 36.8821C7.21499 36.0593 9.97438 36.0153 11.2359 36.5426C12.3709 37.0141 13.9466 38.3604 14.4746 39.5262C13.4516 40.3702 10.5673 40.4008 9.27824 39.8686C8.18359 39.4198 6.32256 37.7599 6.11232 36.8821ZM7.10983 69.045C7.26046 68.7842 7.26863 68.6049 7.56402 68.3992C7.58326 68.4257 7.5968 68.4616 7.60684 68.4855L7.73359 68.8568C7.7663 68.9951 7.78095 69.1371 7.82054 69.2964C7.88559 69.5639 7.96391 69.7823 8.04946 70.0308C8.57621 71.5547 9.15788 72.5424 10.1861 73.7766C14.2064 78.5957 21.7127 78.9793 26.4091 74.533C29.0191 72.0614 30.8965 67.6129 29.2584 62.8798C27.9483 59.0866 25.0782 56.6074 21.1129 55.6062L21.2002 51.4672C21.149 50.0006 20.9937 48.8992 20.6628 47.571C19.846 44.2926 18.6065 42.9301 18.0317 41.3414C21.9473 41.4586 23.8203 40.6269 25.8037 37.4152C26.1862 36.7965 27.169 35.4686 25.9748 34.9569C24.1944 34.198 21.4855 33.9033 19.5158 34.6659C18.2096 35.172 17.1254 36.1579 16.308 37.2154C16.1548 37.4095 15.6963 38.1768 15.5167 38.3174C15.3366 38.2121 14.7062 37.375 14.5316 37.1785C14.1285 36.724 13.9556 36.5699 13.5009 36.1902C9.95136 33.249 4.5634 35.5226 4.32215 36.2602C4.09183 36.9671 5.3711 38.4919 5.70493 38.8824C8.3567 41.9891 10.6708 42.1202 14.394 41.1921C14.4447 42.2581 13.3908 44.6417 13.0311 45.5326C12.0297 48.0172 10.2409 50.5387 8.54756 52.398C8.02667 52.9675 6.2198 54.7159 5.45491 55.0977C4.92004 54.8425 4.24068 53.9952 2.82216 53.2556C-0.581717 51.4799 -4.59475 51.588 -7.81691 53.3796C-11.339 55.3376 -14.4653 59.7408 -13.3918 65.2454C-11.9163 72.8067 -3.62409 76.5336 3.07514 72.8738C4.61686 72.0278 6.23408 70.5508 7.10983 69.045Z" fill="#341D1A"/>
<path d="M11.1209 40.0794C8.71999 39.9453 7.04483 38.6864 6.43313 37.9995C6.38416 37.9445 6.34661 37.8871 6.31586 37.8285L5.97626 37.1821C5.89172 37.0211 5.86013 36.8521 5.97545 36.7376C6.31813 36.3974 7.35847 36.0114 9.74619 36.2721C12.2939 36.5504 13.9145 37.9565 14.5918 38.8571C14.7458 39.062 14.7635 39.2839 14.5937 39.4232C14.1626 39.7767 13.1229 40.1912 11.1209 40.0794Z" fill="#A0EBB5"/>
<path d="M6.07115 36.8313C6.50295 36.9733 6.93063 37.1641 7.31271 37.3674C8.00297 37.7348 8.90211 38.0889 10.04 38.3462C11.8798 38.7621 13.409 38.9573 14.4503 39.0387C14.4734 39.3459 14.3376 39.6181 14.0298 39.7432C13.45 39.9787 12.5205 40.1578 11.1212 40.0796C8.8486 39.9526 7.22603 38.8173 6.54051 38.1139C6.41736 37.9875 6.32263 37.8395 6.24247 37.687C6.08603 37.3892 6.00916 37.0726 6.07115 36.8313Z" fill="#6EAF80"/>
<path fill-rule="evenodd" clip-rule="evenodd" d="M19.6128 60.0562C17.1577 60.2765 19.5109 58.0668 19.2584 56.8053C10.2111 56.588 5.97437 66.4355 11.2394 72.7504C12.6242 74.4137 14.5706 75.6182 17.247 76.0902C20.2258 76.6141 22.8898 75.4482 24.7088 74.0877C29.6466 70.3874 29.7028 62.111 24.0676 58.4381C23.4076 58.0087 21.6646 57.0421 20.8086 57.1089C20.4272 57.9096 20.6444 58.6567 19.6128 60.0562Z" fill="#F7405E"/>
<path fill-rule="evenodd" clip-rule="evenodd" d="M4.04309 55.9549C3.60084 55.2743 1.79896 54.3524 1.12182 54.1058C-7.1916 51.0806 -14.4729 59.105 -11.4175 66.8018C-10.1357 70.0226 -7.07797 72.3366 -3.37993 72.787C-1.18493 73.0533 1.49006 72.3238 3.21588 71.064C6.48745 68.6728 8.21926 64.2239 6.88663 60.2435C6.56378 59.2791 5.89523 57.7759 5.21649 57.1774C4.56207 57.3577 2.05254 59.2943 1.36394 58.3654C0.614929 57.3661 2.23724 57.2633 3.67657 56.2817C4.10219 55.992 3.77986 56.3626 4.04309 55.9549Z" fill="#F7405E"/>
<path fill-rule="evenodd" clip-rule="evenodd" d="M-4.35675 69.2166C-4.64864 68.4937 -4.67094 68.0571 -4.69587 67.154C-4.69704 66.9456 -4.70189 66.0821 -4.66314 65.9132C-4.48912 65.0884 -4.75475 65.5068 -4.26068 65.1169L-0.885378 65.2468C-0.4256 65.8199 -0.232401 68.4093 -0.92508 68.7804C-0.898596 69.9614 -1.43131 70.54 -2.28189 71.0709C-3.73115 71.0393 -3.98217 70.5246 -4.35675 69.2166ZM-5.01603 64.9326C-5.58236 66.5933 -5.33089 68.9541 -4.54856 70.4087C-2.67287 73.9117 1.14621 69.9995 -0.0211322 65.3809C-0.29507 64.3205 -1.08722 64.6525 -2.31774 64.6892C-3.19102 64.7139 -4.22349 64.6701 -5.01603 64.9326Z" fill="#341D1A"/>
<path fill-rule="evenodd" clip-rule="evenodd" d="M3.84243 62.1733C1.76712 65.5396 8.05097 65.7525 5.63839 62.0838L3.84243 62.1733Z" fill="#341D1A"/>
<path fill-rule="evenodd" clip-rule="evenodd" d="M20.1831 68.3903C20.7048 69.116 20.9307 68.5776 21.8795 69.1623C18.0982 70.9528 21.4646 74.2017 23.2636 72.3669C25.5234 70.0737 21.2251 67.0511 20.1831 68.3903Z" fill="#341D1A"/>
<path fill-rule="evenodd" clip-rule="evenodd" d="M13.7376 62.9106C13.7658 63.7399 14.5772 63.989 15.378 65.3805C14.2069 65.479 13.3712 64.023 12.4163 64.6819C12.5047 64.9059 12.0032 64.8168 13.2781 65.3713C14.5529 65.9259 15.4591 66.6257 16.2947 66.1423C16.3781 65.3172 15.2801 64.0063 14.6721 63.2886C13.9244 62.4193 14.1754 62.8847 13.7376 62.9106Z" fill="#341D1A"/>
<path fill-rule="evenodd" clip-rule="evenodd" d="M16.3897 70.6846C15.9578 69.8829 16.3019 69.6287 15.6528 68.8325C15.1632 69.816 15.9594 71.0532 16.1985 71.1811C16.9444 71.3492 17.5853 71.3239 18.099 70.7589C17.2078 70.1689 17.5943 70.8974 16.3897 70.6846Z" fill="#341D1A"/>
</g>
<defs>
<clipPath id="clip0_58_825">
<rect x="10.8037" width="54" height="96" rx="11" transform="rotate(28.5332 10.8037 0)" fill="white"/>
</clipPath>
</defs>
</svg>
