<svg width="40" height="36" viewBox="0 0 40 36" fill="none" xmlns="http://www.w3.org/2000/svg">
<path d="M20.4489 4.03952C23.3471 4.66027 25.748 6.24828 27.6223 7.68882C28.5143 8.37438 29.4465 9.15652 30.0897 9.65958C30.8237 10.2337 31.3166 10.5551 31.6432 10.6643C31.9017 10.7507 32.1142 10.7954 32.2841 10.815C32.6499 10.8572 33.0633 10.7764 33.7956 10.6935C34.3934 10.6258 35.2929 10.549 36.0524 10.9532C36.6145 11.2524 37.206 11.6607 37.6216 12.1957C38.0506 12.748 38.3193 13.4793 38.092 14.3376C37.9602 14.8352 37.6346 15.2654 37.2943 15.6144C36.9445 15.9731 36.5032 16.3224 36.0211 16.6605C35.0582 17.3358 33.8015 18.0539 32.4669 18.7896C29.743 20.2911 26.6456 21.8985 24.3573 23.6124C21.8205 25.5123 20.1832 29.1157 19.3352 32.0091C18.8172 33.7766 16.7195 35.0509 14.8183 34.3786L3.05311 30.2176C1.30853 29.6005 0.667685 27.5828 1.93007 26.0437C3.11435 24.6 4.84868 22.6208 7.02048 20.4391C9.17061 18.2791 12.7502 16.7387 15.9637 15.7188C15.9759 15.6993 15.9932 15.6738 16.0105 15.6392C16.0982 15.4642 16.1778 15.1988 16.2168 14.894C16.2555 14.5904 16.2456 14.3107 16.2025 14.1129C16.1874 14.0438 16.1718 13.9998 16.161 13.9741C14.6522 13.1603 13.98 12.7647 13.31 12.2325C12.9797 11.9702 12.6543 11.6782 12.2389 11.3071C11.8189 10.9318 11.2857 10.4566 10.5185 9.8032C9.74372 9.14322 8.88078 9.04586 7.99411 9.23794C7.06052 9.4403 6.11345 9.9683 5.36586 10.5357C4.62209 11.1 3.56791 11.4031 2.58974 11.0763C1.27958 10.6384 0.680091 9.26388 1.25124 8.00613L3.79583 2.40467C4.30399 1.28607 5.66054 0.695004 6.82579 1.0845L7.49079 1.30679C8.48726 1.63987 8.95127 2.67148 8.54939 3.63107C11.6424 3.38851 16.7321 3.24354 20.4489 4.03952Z" fill="#9C1D28" stroke="#341D1A" stroke-width="2"/>
</svg>
