<svg width="62" height="60" viewBox="0 0 62 60" fill="none" xmlns="http://www.w3.org/2000/svg">
<path fill-rule="evenodd" clip-rule="evenodd" d="M41.3452 33.3364L42.299 33.8949C42.3665 33.9127 43.569 34.5549 43.569 34.5549C47.3437 35.984 49.268 33.2063 51.4402 31.541L52.3094 28.1781C51.9754 28.1441 51.6468 28.0213 51.6573 28.1866L48.9728 27.8935C47.7206 27.166 47.5255 26.5369 47.5869 25.0729C48.0406 24.0373 48.2344 23.7815 48.6188 22.8721C49.1224 21.5789 48.4076 22.5095 49.2523 21.3604L51.5576 22.817C52.4402 23.6456 51.886 23.2828 53.2633 22.8519C51.3777 20.6937 49.9959 19.8417 47.212 19.378C47.0894 19.3637 46.8869 19.3103 46.7643 19.296C44.65 19.0992 42.2667 20.059 40.3633 20.9107C35.9837 23.3474 38.2431 24.4309 38.7821 26.288C39.8158 29.828 38.4658 29.1289 41.3452 33.3364Z" fill="#7E252E"/>
<path fill-rule="evenodd" clip-rule="evenodd" d="M5.47825 31.6898C6.77432 33.2772 5.30367 32.4199 6.82444 32.6767L9.64263 29.5211L9.39264 31.495L10.7496 32.3043C12.5831 32.6075 12.1474 33.2326 12.4644 34.9048C11.2836 36.5067 10.7292 36.4868 8.9645 37.0863L10.9012 39.8717C13.6142 40.2625 12.8231 40.8661 15.3888 40.8571C18.42 40.8625 18.385 39.9688 20.5805 38.1472C21.1982 36.2162 21.7781 35.25 21.2428 33.105C20.8919 31.7669 20.2847 30.9208 20.0472 29.9736C19.5455 28.1805 20.1819 27.7527 20.0616 26.9086C18.6017 25.8736 18.6001 25.6746 16.978 25.3911C10.8887 25.8244 9.3741 27.0494 5.47825 31.6898Z" fill="#7E252E"/>
<path fill-rule="evenodd" clip-rule="evenodd" d="M36.6641 44.3759C36.6661 46.8314 36.7367 47.5901 35.1969 49.4583C32.7774 48.6395 32.5983 48.0868 30.9299 45.1736L29.6213 40.9654L35.5889 39.1461C36.9133 40.8313 36.8269 42.5956 36.6641 44.3759ZM35.2476 50.7714C38.7474 48.5899 39.0042 41.5274 36.5245 37.5156C33.6068 37.9011 30.4525 38.5672 28.0421 40.3141C29.0128 45.1191 30.8772 49.8892 35.2476 50.7714Z" fill="#964649"/>
<path fill-rule="evenodd" clip-rule="evenodd" d="M3.97624 22.7375C5.28889 23.3726 2.34588 24.4013 7.71691 21.9012C13.3776 19.2608 16.1655 22.0362 19.7517 21.0327C18.152 19.0222 18.5428 19.2516 16.1941 18.8486C12.3549 18.1426 5.26144 18.9608 3.97624 22.7375Z" fill="#693638"/>
<path fill-rule="evenodd" clip-rule="evenodd" d="M35.0889 19.5552C36.1941 19.5399 35.3196 20.0493 36.7859 19.2809C37.7279 18.7893 38.8822 16.9457 41.8503 15.6168C45.0103 14.176 45.8643 15.2497 49.09 13.9706C47.4599 12.3492 48.0569 12.3442 45.2725 12.5664C44.0518 12.6775 42.8967 12.9504 41.4233 13.6087C39.7545 14.3237 38.5973 15.0835 37.1859 16.1913C36.9423 16.3617 35.7139 17.3915 35.5717 17.5886C34.7038 18.894 34.9372 17.8725 35.0889 19.5552Z" fill="#693638"/>
<path fill-rule="evenodd" clip-rule="evenodd" d="M30.9304 45.1741C31.9202 44.9117 32.6311 44.6119 33.74 44.3087C36.1622 43.612 35.0022 43.2879 36.6646 44.3763C36.8274 42.5961 36.9138 40.8318 35.5893 39.1465L29.6217 40.9658L30.9304 45.1741Z" fill="#F5625C"/>
<path fill-rule="evenodd" clip-rule="evenodd" d="M40.3633 20.91C42.2668 20.0583 44.6501 19.0985 46.7643 19.2953C46.8869 19.3096 47.0895 19.363 47.212 19.3773C49.996 19.841 51.3778 20.693 53.2634 22.8512C52.9403 16.7548 45.3983 15.9203 40.4446 18.8916C40.2662 19.9096 40.3994 20.0891 40.3633 20.91Z" fill="#BA9EA1"/>
<path fill-rule="evenodd" clip-rule="evenodd" d="M5.47812 31.6901C9.37397 27.0498 10.8886 25.8247 16.9779 25.3915L14.3565 23.4904C10.5397 23.9998 7.5395 25.5188 5.32184 28.7245C5.30152 29.9647 5.41291 30.8425 5.47812 31.6901Z" fill="#BA9EA1"/>
<path fill-rule="evenodd" clip-rule="evenodd" d="M36.6649 44.3761C35.0025 43.2877 36.1625 43.6118 33.7403 44.3085C32.6314 44.6117 31.9205 44.9115 30.9306 45.1738C32.599 48.087 32.7781 48.6397 35.1976 49.4586C36.7375 47.5904 36.6669 46.8316 36.6649 44.3761Z" fill="#FC867D"/>
<path fill-rule="evenodd" clip-rule="evenodd" d="M20.5807 38.1475C18.3852 39.9691 18.4202 40.8628 15.389 40.8574C12.8233 40.8664 13.6144 40.2628 10.9015 39.872L11.6519 41.7488C13.6147 42.5194 13.9253 43.0526 16.3297 42.4233C19.006 41.7214 20.9219 40.8911 20.5807 38.1475Z" fill="#AB8384"/>
<path fill-rule="evenodd" clip-rule="evenodd" d="M51.44 31.5409C49.2678 33.2062 47.3435 35.9839 43.5688 34.5548C43.5688 34.5548 42.3663 33.9126 42.2988 33.8948L41.345 33.3363C43.2906 36.088 43.912 36.8115 47.2067 36.0922C48.3955 35.8282 49.7142 35.3457 50.6937 34.5752C52.4002 33.2383 51.9364 33.4228 51.44 31.5409Z" fill="#AB8384"/>
<path fill-rule="evenodd" clip-rule="evenodd" d="M10.7494 32.3039L9.39246 31.4946L9.64244 29.5208L6.82425 32.6764C5.30348 32.4196 6.77413 33.2769 5.47806 31.6894C4.99949 32.6823 4.1443 30.7238 5.47886 33.2601C9.03582 33.5306 6.55796 32.3173 10.7494 32.3039Z" fill="#BA9EA1"/>
<path fill-rule="evenodd" clip-rule="evenodd" d="M47.5873 25.0731L51.558 22.8173L49.2527 21.3607C48.408 22.5097 49.1228 21.5792 48.6192 22.8723C48.2348 23.7818 48.041 24.0376 47.5873 25.0731Z" fill="#BA9EA1"/>
</svg>
