<svg width="302" height="157" viewBox="0 0 302 157" fill="none" xmlns="http://www.w3.org/2000/svg">
<g filter="url(#filter0_d_6_2323)">
<path d="M257.068 130.078C253.899 138.203 250.352 144.105 244.31 144.739L50.2829 147.219C47.9425 147.464 45.6967 146.957 43.7864 145.892C37.7063 142.502 36.4858 134.278 33.1649 128.16L7.07869 80.1019C3.75781 73.9839 0.516916 65.9715 5.76096 61.3935C7.40852 59.9552 9.50017 58.9927 11.8406 58.7472L287.73 3.06096C289.464 2.87897 291.147 3.1105 292.679 3.67603C300.24 6.46638 298.382 16.7885 295.621 24.3603L257.068 130.078Z" fill="#FFC434"/>
<path d="M244.398 146.238L244.33 146.24L50.3459 148.719C47.7219 148.975 45.2018 148.398 43.056 147.202C39.5874 145.268 37.5939 141.999 36.0758 138.671C35.3168 137.007 34.6426 135.246 33.9789 133.594C33.305 131.916 32.6329 130.323 31.8469 128.875L5.76068 80.8176C4.08426 77.7292 2.34236 74.0171 1.72911 70.4228C1.10946 66.7907 1.61406 63.0223 4.77441 60.2634C6.62677 58.6463 8.97493 57.5598 11.5976 57.2664L287.433 1.59058L287.502 1.57644L287.573 1.569C289.542 1.36248 291.455 1.62559 293.199 2.269C297.771 3.95655 299.373 7.96456 299.52 12.1731C299.666 16.3355 298.435 21.0237 297.031 24.8744L258.477 130.592L258.472 130.607L258.466 130.623C256.868 134.719 255.124 138.398 252.942 141.15C250.734 143.935 248.002 145.86 244.467 146.231L244.398 146.238Z" stroke="#515795" stroke-width="3"/>
</g>
<defs>
<filter id="filter0_d_6_2323" x="0" y="0" width="301.032" height="156.28" filterUnits="userSpaceOnUse" color-interpolation-filters="sRGB">
<feFlood flood-opacity="0" result="BackgroundImageFix"/>
<feColorMatrix in="SourceAlpha" type="matrix" values="0 0 0 0 0 0 0 0 0 0 0 0 0 0 0 0 0 0 127 0" result="hardAlpha"/>
<feOffset dy="6"/>
<feComposite in2="hardAlpha" operator="out"/>
<feColorMatrix type="matrix" values="0 0 0 0 0 0 0 0 0 0 0 0 0 0 0 0 0 0 0.1 0"/>
<feBlend mode="normal" in2="BackgroundImageFix" result="effect1_dropShadow_6_2323"/>
<feBlend mode="normal" in="SourceGraphic" in2="effect1_dropShadow_6_2323" result="shape"/>
</filter>
</defs>
</svg>
